# xmcd
#
# Track frame offsets: 
#        150
#        24302
#        39970
#        62327
#        86142
#        114775
#        134037
#        161367
#        181337
#        202405
#        236770
#        260205
#
# Disc length: 4397 seconds
#
# Revision: 2
# Processed by: cddbd v1.5.2PL0 Copyright (c) Steve Scherf et al.
# Submitted via: ExactAudioCopy v0.95a4
#
DISCID=a4112b0c
DTITLE=Ronnie Earl and The Broadcasters - Blues Guitar Virtuoso Live In 
DTITLE=Europe
DYEAR=1994
DGENRE=Jazz
TTITLE0=San-Ho-Zay
TTITLE1=Robert Nighthawk Stomp
TTITLE2=Thank You Mr. T-Bone
TTITLE3=Akos
TTITLE4=Contrition
TTITLE5=Moanin'
TTITLE6=Blues For The West Side (With Love To Magic Sam)
TTITLE7=The Stumble
TTITLE8=Szeren
TTITLE9=Blues For Henry
TTITLE10=Not Now Kovitch
TTITLE11=Rego Park Blues
EXTD=
EXTT0=
EXTT1=
EXTT2=
EXTT3=
EXTT4=
EXTT5=
EXTT6=
EXTT7=
EXTT8=
EXTT9=
EXTT10=
EXTT11=
PLAYORDER=
